<?xml version="1.0" encoding="utf-8"?>
<!-- Generator: Adobe Illustrator 28.2.0, SVG Export Plug-In . SVG Version: 6.00 Build 0)  -->
<svg version="1.1" id="Camada_1" xmlns="http://www.w3.org/2000/svg" xmlns:xlink="http://www.w3.org/1999/xlink" x="0px" y="0px"
	 viewBox="0 0 40 40" style="enable-background:new 0 0 40 40;" xml:space="preserve">
<style type="text/css">
	.st0{fill:#FB0544;}
</style>
<path class="st0" d="M29,33.2H14.9C7.1,33.2,0.7,26.9,0.7,19l0,0c0-7.8,6.3-14.1,14.1-14.1l0,0C22.7,4.9,29,11.2,29,19L29,33.2
	L29,33.2z M38.4,21.4c0-4.3-3.5-7.9-7.9-7.9l0,0v19.7h7.9C38.4,33.2,38.4,21.4,38.4,21.4z M35,4.9c-2.6-0.3-4.7,1.8-4.4,4.4
	c0.2,1.8,1.6,3.2,3.4,3.4c2.6,0.3,4.7-1.8,4.4-4.4C38.2,6.6,36.8,5.2,35,4.9z"/>
</svg>
