<?xml version="1.0" encoding="utf-8"?>
<!-- Generator: Adobe Illustrator 28.2.0, SVG Export Plug-In . SVG Version: 6.00 Build 0)  -->
<svg version="1.1" id="Camada_1" xmlns="http://www.w3.org/2000/svg" xmlns:xlink="http://www.w3.org/1999/xlink" x="0px" y="0px"
	 viewBox="0 0 55 55" style="enable-background:new 0 0 55 55;" xml:space="preserve">
<style type="text/css">
	.st0{fill:#FB0544;}
</style>
<path class="st0" d="M39.9,44.5H21.4c-10.3,0-18.6-8.3-18.6-18.5l0,0c0-10.3,8.3-18.6,18.6-18.6l0,0C31.7,7.5,40,15.8,40,26.1
	L39.9,44.5L39.9,44.5z M52.2,29.1c0-5.6-4.7-10.3-10.3-10.3l0,0v25.8h10.3V29.1z M47.7,7.5c-3.4-0.5-6.3,2.3-5.8,5.8
	c0.3,2.3,2.2,4.2,4.4,4.4c3.4,0.5,6.3-2.3,5.8-5.8C51.9,9.7,50,7.8,47.7,7.5z"/>
</svg>
