<?xml version="1.0" encoding="utf-8"?>
<!-- Generator: Adobe Illustrator 28.2.0, SVG Export Plug-In . SVG Version: 6.00 Build 0)  -->
<svg version="1.1" id="Camada_1" xmlns="http://www.w3.org/2000/svg" xmlns:xlink="http://www.w3.org/1999/xlink" x="0px" y="0px"
	 viewBox="0 0 31.6 23.7" style="enable-background:new 0 0 31.6 23.7;" xml:space="preserve">
<style type="text/css">
	.st0{fill:#FB0544;}
</style>
<path class="st0" d="M23.7,23.7H11.9C5.3,23.7,0,18.4,0,11.9l0,0C0,5.3,5.3,0,11.9,0l0,0c6.6,0,11.9,5.3,11.9,11.9L23.7,23.7
	L23.7,23.7z M31.6,13.8c0-3.6-3-6.6-6.6-6.6l0,0v16.5h6.6C31.6,23.7,31.6,13.8,31.6,13.8z M28.7,0c-2.2-0.3-4,1.5-3.7,3.7
	c0.2,1.5,1.4,2.7,2.8,2.8c2.2,0.3,4-1.5,3.7-3.7C31.4,1.4,30.2,0.2,28.7,0z"/>
</svg>
