<?xml version="1.0" encoding="utf-8"?>
<!-- Generator: Adobe Illustrator 28.2.0, SVG Export Plug-In . SVG Version: 6.00 Build 0)  -->
<svg version="1.1" id="Camada_1" xmlns="http://www.w3.org/2000/svg" xmlns:xlink="http://www.w3.org/1999/xlink" x="0px" y="0px"
	 viewBox="0 0 140 40" style="enable-background:new 0 0 140 40;" xml:space="preserve">
<style type="text/css">
	.st0{fill:#FFFFFF;}
	.st1{fill:#FB0544;}
</style>
<g id="laranja_logo">
	<g>
		<path class="st0" d="M44.4,25h-1.1l-0.3,4h-1.7l1.3-15.3h2.5L46.6,29h-1.9L44.4,25z M43.5,23.5h0.8L43.9,19h-0.1L43.5,23.5z"/>
		<path class="st0" d="M50.7,29.1c-0.3,0-0.5,0-0.8-0.1c-0.3-0.1-0.5-0.2-0.7-0.4c-0.2-0.2-0.4-0.4-0.5-0.7c-0.1-0.3-0.2-0.6-0.2-1
			v-11c0-0.4,0.1-0.7,0.2-1c0.1-0.3,0.3-0.5,0.5-0.7c0.2-0.2,0.5-0.3,0.7-0.4c0.3-0.1,0.5-0.1,0.8-0.1h0.4c0.3,0,0.5,0,0.8,0.1
			c0.3,0.1,0.5,0.2,0.7,0.4s0.4,0.4,0.5,0.7c0.1,0.3,0.2,0.6,0.2,1v4h-2v-3.7c0-0.3,0-0.6-0.1-0.7c-0.1-0.1-0.2-0.2-0.3-0.2h-0.1
			c-0.1,0-0.2,0.1-0.3,0.2s-0.1,0.4-0.1,0.7v10.5c0,0.6,0.1,0.9,0.4,0.9h0.1c0.3,0,0.4-0.3,0.4-0.9v-2.2h-0.5v-1.6h2.5v3.4v0.1V29
			h-0.9l-0.2-0.5c-0.2,0.2-0.4,0.4-0.7,0.5c-0.2,0.1-0.4,0.2-0.6,0.2H50.7z"/>
		<path class="st0" d="M58.3,10.9l1.3,1.9h-1.7l-0.5-0.9L57,12.8h-1.7l1.3-1.9H58.3z M57.4,15.2v5.3h1.5V22h-1.5v5.3h2V29h-4V13.6
			h3.8v1.6H57.4z"/>
		<path class="st0" d="M64.8,29l-1.7-9.3h0V29h-1.6V13.6h2.2l1.5,9h0v-9H67V29H64.8z"/>
		<path class="st0" d="M71.3,29.1c-0.3,0-0.5,0-0.8-0.1s-0.5-0.2-0.7-0.4c-0.2-0.2-0.4-0.4-0.5-0.7c-0.1-0.3-0.2-0.6-0.2-1v-11
			c0-0.4,0.1-0.7,0.2-1c0.1-0.3,0.3-0.5,0.5-0.7c0.2-0.2,0.4-0.3,0.7-0.4s0.5-0.1,0.8-0.1h0.4c0.3,0,0.5,0,0.8,0.1s0.5,0.2,0.7,0.4
			c0.2,0.2,0.4,0.4,0.5,0.7c0.1,0.3,0.2,0.6,0.2,1v4h-2v-3.7c0-0.3,0-0.6-0.1-0.7c-0.1-0.1-0.2-0.2-0.3-0.2h-0.1
			c-0.1,0-0.2,0.1-0.3,0.2C71,15.5,71,15.7,71,16.1v10.5c0,0.6,0.1,0.9,0.4,0.9h0.1c0.3,0,0.4-0.3,0.4-0.9v-3.8h2v4.1
			c0,0.4-0.1,0.7-0.2,1c-0.1,0.3-0.3,0.5-0.5,0.7c-0.2,0.2-0.4,0.3-0.7,0.4s-0.5,0.1-0.8,0.1H71.3z"/>
		<path class="st0" d="M78,13.6V29h-2V13.6H78z"/>
		<path class="st0" d="M82.9,25h-1.1l-0.3,4h-1.7l1.3-15.3h2.5L85.1,29h-1.9L82.9,25z M82,23.5h0.8L82.4,19h-0.1L82,23.5z"/>
		<path class="st1" d="M92.8,13.6V29h-2V13.6H92.8z"/>
		<path class="st1" d="M98.3,29l-1.7-9.3h0V29h-1.6V13.6h2.2l1.5,9h0v-9h1.8V29H98.3z"/>
		<path class="st1" d="M105.4,19.8v-3.7c0-0.3,0-0.6-0.1-0.7c-0.1-0.1-0.2-0.2-0.3-0.2h-0.1c-0.1,0-0.2,0.1-0.3,0.2
			c-0.1,0.1-0.1,0.4-0.1,0.7v1.7c0,0.5,0.1,0.9,0.2,1.3c0.1,0.4,0.3,0.7,0.5,1.1c0.2,0.3,0.4,0.6,0.7,0.9c0.2,0.3,0.5,0.6,0.7,1
			c0.2,0.3,0.4,0.7,0.5,1.1c0.1,0.4,0.2,0.8,0.2,1.3v2.3c0,0.4-0.1,0.7-0.2,1c-0.1,0.3-0.3,0.5-0.5,0.7c-0.2,0.2-0.4,0.3-0.7,0.4
			s-0.5,0.1-0.8,0.1h-0.4c-0.3,0-0.5,0-0.8-0.1c-0.3-0.1-0.5-0.2-0.7-0.4c-0.2-0.2-0.4-0.4-0.5-0.7c-0.1-0.3-0.2-0.6-0.2-1v-4h1.8
			v3.8c0,0.3,0,0.6,0.1,0.7c0.1,0.1,0.2,0.2,0.4,0.2h0.1c0.3,0,0.5-0.3,0.5-0.9v-1.8c0-0.5-0.1-0.9-0.2-1.3
			c-0.1-0.4-0.3-0.7-0.5-1.1c-0.2-0.3-0.4-0.6-0.7-0.9c-0.2-0.3-0.5-0.6-0.7-0.9c-0.2-0.3-0.4-0.7-0.5-1.1c-0.1-0.4-0.2-0.8-0.2-1.3
			v-2.3c0-0.4,0.1-0.7,0.2-1c0.1-0.3,0.3-0.5,0.5-0.7c0.2-0.2,0.5-0.3,0.7-0.4s0.5-0.1,0.8-0.1h0.2c0.3,0,0.5,0,0.8,0.1
			s0.5,0.2,0.7,0.4s0.4,0.4,0.5,0.7c0.1,0.3,0.2,0.6,0.2,1v4H105.4z"/>
		<path class="st1" d="M111.5,13.6V29h-2V13.6H111.5z"/>
		<path class="st1" d="M113.6,29V13.6h2.6c0.3,0,0.5,0,0.8,0.1s0.5,0.2,0.7,0.4s0.4,0.4,0.5,0.7c0.1,0.3,0.2,0.6,0.2,1v10.8
			c0,0.4-0.1,0.7-0.2,1c-0.1,0.3-0.3,0.5-0.5,0.7c-0.2,0.2-0.5,0.3-0.7,0.4s-0.5,0.1-0.8,0.1H113.6z M115.6,15.2v12.1h0.5
			c0.1,0,0.2-0.1,0.3-0.2c0.1-0.1,0.1-0.4,0.1-0.7V16.2c0-0.3,0-0.6-0.1-0.7s-0.2-0.2-0.3-0.2H115.6z"/>
		<path class="st1" d="M122.5,15.2v5.3h1.5V22h-1.5v5.3h2V29h-4V13.6h3.8v1.6H122.5z"/>
		<path class="st1" d="M131.3,19.8c0,0.5-0.1,0.8-0.2,1c-0.1,0.2-0.3,0.4-0.5,0.5c0.2,0.1,0.4,0.2,0.5,0.4c0.1,0.2,0.2,0.6,0.2,1
			v3.3c0,1.1,0,1.8,0.1,2.2c0.1,0.4,0.1,0.6,0.2,0.7h-2c-0.1-0.2-0.2-0.5-0.2-0.9c0-0.5-0.1-1.1-0.1-1.9V23c0-0.6-0.1-0.9-0.4-0.9
			h-0.5V29h-2V13.6h2.6c0.6,0,1.1,0.2,1.5,0.6c0.4,0.4,0.6,1,0.6,1.7V19.8z M129,20.6c0.2,0,0.4-0.3,0.4-0.9v-3.5
			c0-0.6-0.1-0.9-0.4-0.9h-0.5v5.3H129z"/>
	</g>
	<path class="st1" d="M29.9,29.3H14.2c-4.9,0-8.9-4-8.9-8.9v-6.8c0-4.9,4-8.9,8.9-8.9H21c4.9,0,8.9,4,8.9,8.9V29.3z M38.1,19
		c0-3.8-3.1-6.8-6.8-6.8l0,0v17.1h6.8V19z M35.1,4.7c-2.2-0.3-4.1,1.6-3.8,3.8c0.2,1.5,1.4,2.8,2.9,2.9c2.2,0.3,4.1-1.6,3.8-3.8
		C37.9,6.1,36.7,4.9,35.1,4.7z"/>
</g>
</svg>
